<svg xmlns="http://www.w3.org/2000/svg" viewBox="0 0 512 512"><defs><linearGradient id="a" x2="0" y2="1"><stop stop-color="#ccece0"/><stop offset="1" stop-color="#75b4a0"/></linearGradient></defs><rect width="512" height="512" rx="112" fill="url(#a)"/><path d="M0 376Q122 339 250 378T512 365V512H0" fill="#4f958e"/><ellipse cx="211" cy="321" rx="107" ry="86" fill="#f7f5df"/><path d="M231 328Q203 261 238 184Q272 126 321 170Q351 211 303 254L283 333" fill="#fffbea"/><path d="M250 171Q227 123 247 125L270 155Q268 120 287 129L294 163" fill="#fffbea"/><path d="M318 207L444 247Q370 327 320 263Z" fill="#e7af67"/><path d="M317 192Q389 211 452 247L316 228Z" fill="#ffda88"/><ellipse cx="290" cy="201" rx="10" ry="13" fill="#284f4b"/><circle cx="293" cy="196" r="3" fill="white"/><ellipse cx="281" cy="229" rx="13" ry="8" fill="#eab59d"/><path d="M136 298Q212 264 231 340Q180 388 138 335" fill="#e2e9d3"/><path d="m169 395-22 28 44-4m38-21-16 25 43-3" stroke="#e6b071" stroke-width="13" fill="none" stroke-linecap="round"/></svg>
